<?xml version="1.0" encoding="UTF-8"?>
<svg xmlns="http://www.w3.org/2000/svg" xmlns:xlink="http://www.w3.org/1999/xlink" version="1.1" viewBox="0 0 936.44 275.06">
  <!-- Generator: Adobe Illustrator 30.2.1, SVG Export Plug-In . SVG Version: 2.1.1 Build 1)  -->
  <defs>
    <style>
      .st0 {
        fill: url(#linear-gradient2);
        stroke: url(#linear-gradient3);
      }

      .st0, .st1, .st2, .st3 {
        stroke-miterlimit: 10;
      }

      .st1 {
        fill: url(#linear-gradient6);
        stroke: url(#linear-gradient7);
      }

      .st2 {
        fill: url(#linear-gradient4);
        stroke: url(#linear-gradient5);
      }

      .st4 {
        fill: url(#linear-gradient9);
      }

      .st5 {
        fill: url(#linear-gradient8);
      }

      .st6 {
        fill: url(#Gradiente_sem_nome_59);
      }

      .st7 {
        fill: url(#Gradiente_sem_nome_55);
      }

      .st8 {
        fill: url(#Gradiente_sem_nome_56);
      }

      .st9 {
        fill: url(#Gradiente_sem_nome_54);
      }

      .st10 {
        fill: url(#Gradiente_sem_nome_52);
      }

      .st11 {
        fill: url(#Gradiente_sem_nome_57);
      }

      .st12 {
        fill: url(#Gradiente_sem_nome_53);
      }

      .st13 {
        fill: url(#Gradiente_sem_nome_51);
      }

      .st14 {
        fill: url(#Gradiente_sem_nome_58);
      }

      .st3 {
        fill: url(#linear-gradient);
        stroke: url(#linear-gradient1);
      }

      .st15 {
        fill: url(#linear-gradient13);
      }

      .st16 {
        fill: url(#linear-gradient12);
      }

      .st17 {
        fill: url(#linear-gradient15);
      }

      .st18 {
        fill: url(#linear-gradient16);
      }

      .st19 {
        fill: url(#linear-gradient11);
      }

      .st20 {
        fill: url(#linear-gradient10);
      }

      .st21 {
        fill: url(#linear-gradient14);
      }

      .st22 {
        fill: url(#Gradiente_sem_nome_5);
      }

      .st23 {
        fill: #fff;
      }
    </style>
    <linearGradient id="linear-gradient" x1="58.97" y1="86.53" x2="58.97" y2="188.8" gradientUnits="userSpaceOnUse">
      <stop offset="0" stop-color="#ffc84b"/>
      <stop offset="1" stop-color="#ff5c00"/>
      <stop offset="1" stop-color="#cd4900"/>
    </linearGradient>
    <linearGradient id="linear-gradient1" x1="-.5" y1="137.67" x2="118.44" y2="137.67" gradientUnits="userSpaceOnUse">
      <stop offset="0" stop-color="#cd4900"/>
      <stop offset="0" stop-color="#ff5c00"/>
      <stop offset="1" stop-color="#ff8d07"/>
    </linearGradient>
    <linearGradient id="linear-gradient2" x1="182.82" y1="84.25" x2="182.82" y2="188.38" xlink:href="#linear-gradient"/>
    <linearGradient id="linear-gradient3" x1="123.28" y1="136.31" x2="242.36" y2="136.31" xlink:href="#linear-gradient1"/>
    <linearGradient id="linear-gradient4" x1="298.48" x2="298.48" y2="186.24" xlink:href="#linear-gradient"/>
    <linearGradient id="linear-gradient5" x1="237.51" y1="136.39" x2="359.45" y2="136.39" xlink:href="#linear-gradient1"/>
    <linearGradient id="linear-gradient6" x1="399.82" x2="399.82" y2="186.24" xlink:href="#linear-gradient"/>
    <linearGradient id="linear-gradient7" x1="334.51" y1="136.39" x2="465.13" y2="136.39" xlink:href="#linear-gradient1"/>
    <linearGradient id="linear-gradient8" x1="495.66" y1="105.7" x2="495.66" y2="165.95" gradientUnits="userSpaceOnUse">
      <stop offset=".37" stop-color="#fefefe"/>
      <stop offset=".4" stop-color="#f9f9f9"/>
      <stop offset=".81" stop-color="#aaa"/>
      <stop offset="1" stop-color="#8b8b8b"/>
    </linearGradient>
    <linearGradient id="linear-gradient9" x1="550.61" x2="550.61" y2="166.47" xlink:href="#linear-gradient8"/>
    <linearGradient id="linear-gradient10" x1="603.11" x2="603.11" y2="167.24" xlink:href="#linear-gradient8"/>
    <linearGradient id="linear-gradient11" x1="667.58" x2="667.58" xlink:href="#linear-gradient8"/>
    <linearGradient id="linear-gradient12" x1="714.26" x2="714.26" xlink:href="#linear-gradient8"/>
    <linearGradient id="linear-gradient13" x1="756.48" x2="756.48" xlink:href="#linear-gradient8"/>
    <linearGradient id="linear-gradient14" x1="798.69" x2="798.69" xlink:href="#linear-gradient8"/>
    <linearGradient id="linear-gradient15" x1="840.39" x2="840.39" y2="167.24" xlink:href="#linear-gradient8"/>
    <linearGradient id="linear-gradient16" x1="904.85" x2="904.85" xlink:href="#linear-gradient8"/>
    <linearGradient id="Gradiente_sem_nome_5" data-name="Gradiente sem nome 5" x1="114.35" y1="219.95" x2="248.47" y2="219.95" gradientUnits="userSpaceOnUse">
      <stop offset="0" stop-color="#7f7f7f"/>
      <stop offset=".56" stop-color="#fff"/>
      <stop offset=".99" stop-color="#3f3f3f"/>
    </linearGradient>
    <linearGradient id="Gradiente_sem_nome_51" data-name="Gradiente sem nome 5" x1="159" y1="42.83" x2="353.48" y2="42.83" xlink:href="#Gradiente_sem_nome_5"/>
    <linearGradient id="Gradiente_sem_nome_52" data-name="Gradiente sem nome 5" x1="212.01" y1="53.94" x2="343.51" y2="53.94" xlink:href="#Gradiente_sem_nome_5"/>
    <linearGradient id="Gradiente_sem_nome_53" data-name="Gradiente sem nome 5" x1="109.84" y1="232.1" x2="302.21" y2="232.1" xlink:href="#Gradiente_sem_nome_5"/>
    <linearGradient id="Gradiente_sem_nome_54" data-name="Gradiente sem nome 5" x1="193.02" y1="237.59" x2="328.19" y2="237.59" xlink:href="#Gradiente_sem_nome_5"/>
    <linearGradient id="Gradiente_sem_nome_55" data-name="Gradiente sem nome 5" x1="282.31" y1="66.71" x2="305.37" y2="66.71" xlink:href="#Gradiente_sem_nome_5"/>
    <linearGradient id="Gradiente_sem_nome_56" data-name="Gradiente sem nome 5" x1="297.14" y1="228.92" x2="349.39" y2="228.92" xlink:href="#Gradiente_sem_nome_5"/>
    <linearGradient id="Gradiente_sem_nome_57" data-name="Gradiente sem nome 5" x1="111.65" y1="44.95" x2="162.86" y2="44.95" xlink:href="#Gradiente_sem_nome_5"/>
    <linearGradient id="Gradiente_sem_nome_58" data-name="Gradiente sem nome 5" x1="150.81" y1="207.37" x2="178.6" y2="207.37" xlink:href="#Gradiente_sem_nome_5"/>
    <linearGradient id="Gradiente_sem_nome_59" data-name="Gradiente sem nome 5" x1="132.51" y1="36.26" x2="267.24" y2="36.26" xlink:href="#Gradiente_sem_nome_5"/>
  </defs>
  <g id="Layer_1">
    <g>
      <g>
        <path class="st3" d="M110.11,98.64v55.55c0,5.84.43,8.26,1.42,10.26-11.4,12.96-27.63,24.36-51.85,24.36s-41.17-10.68-53.42-24.36c1.14-2.14,1.57-4.56,1.57-10.26v-55.41c0-6.12-3.56-8.55-7.83-8.55v-3.7h45.44v3.7c-5.56,0-7.83,2.56-7.83,8.55v50.85c0,9.83,10.83,16.1,22.08,16.1s24.22-5.27,24.22-16.38v-50.71c0-5.98-2.56-8.55-7.83-8.55v-3.56h41.88v3.56c-5.27,0-7.83,2.56-7.83,8.55Z"/>
        <path class="st0" d="M178.76,188.38c-22.08,0-43.87-1.28-54.98-2.14v-3.7c5.27,0,7.83-2.28,7.83-8.26v-74.5c0-7.12-2.42-9.54-7.83-9.54v-3.7c10.97-.85,31.62-2.28,53.7-2.28,39.6,0,64.38,20.94,64.38,51.99s-18.09,52.13-63.1,52.13ZM177.05,107.04c-7.41,0-10.97.14-15.67.57v57.69c4.27.43,10.26.57,17.09.57,19.23,0,32.76-9.83,32.76-29.77s-14.81-29.06-34.19-29.06Z"/>
        <path class="st2" d="M314.93,186.24v-3.7c3.85,0,5.98-1.28,5.98-3.7,0-1.28-.28-2.42-1-3.99l-.71-1.43c-6.41,1.57-13.67,2.85-20.51,2.85-7.26,0-15.38-1.43-21.37-2.85l-.57,1.85c-.43,1.71-.71,3.13-.71,4.13,0,2.42,1.85,3.13,5.27,3.13v3.7h-43.3v-3.7c4.7,0,6.12-1.71,8.4-7.26l31.2-75.78c1.14-2.56,1.71-4.42,1.71-5.41,0-2.56-1.28-3.85-3.85-3.85v-3.7h47.01v3.7c-2.71,0-4.13,1.42-4.13,3.85,0,1.57,1,4.13,1.57,5.56l30.91,75.78c2.42,5.7,4.13,7.12,8.12,7.12v3.7h-44.02ZM296.56,114.88h-.28l-13.1,38.03c4.13,1.42,7.83,2.28,13.82,2.28,5.41,0,10.11-.85,13.96-2.42l-14.39-37.89Z"/>
        <path class="st1" d="M454.24,97.07l-39.74,59.97v17.09c0,5.98,1.85,8.4,7.83,8.4v3.7h-45.44v-3.7c5.98,0,7.98-2.28,7.98-8.4v-17.38l-39.88-59.26c-3.7-5.41-5.84-7.27-9.97-7.27v-3.7h50.71v3.7c-3.85,0-5.84,1.42-5.84,4.27,0,1.14.57,2.71,1.42,4.13l20.08,35.18h.28l19.37-34.76c1.28-2.28,1.85-3.28,1.85-5.13,0-2.42-1.71-3.7-5.84-3.7v-3.7h47.58v3.7c-4.13,0-7.12,1.85-10.4,6.84Z"/>
      </g>
      <g>
        <path class="st5" d="M524.37,165.95h-17.47v-1.55c1.63-.26,2.15-1.03,2.15-2.24,0-.52-.34-1.98-.6-2.67l-1.29-4.05c-2.32.6-8.18,1.12-12.31,1.12s-9.38-.52-12.22-1.12l-1.38,4.73c-.17.69-.34,1.38-.34,1.89,0,1.03.43,2.07,2.15,2.32v1.55h-16.09v-1.55c1.72-.34,2.5-.77,3.61-4.13l16.52-48.2c.34-1.03.77-2.41.77-3.01,0-.86-.34-1.46-1.29-1.72v-1.63h17.9v1.63c-1.03.17-1.29.95-1.29,1.81,0,.34.52,1.98.86,3.01l16.7,47.77c1.21,3.36,1.81,4.05,3.62,4.48v1.55ZM494.67,117.32h-.34l-8.95,29.35c1.98.52,7.14.95,9.47.95,2.67,0,7.57-.43,9.3-.95l-9.47-29.35Z"/>
        <path class="st4" d="M572.73,153.9l-3.1,12.57c-1.03-.26-2.67-.52-5.08-.52h-36.06v-1.55c1.72,0,3.27-1.12,3.27-3.87v-49.83c0-2.07-1.38-3.36-3.27-3.36v-1.63h17.82v1.63c-1.98,0-3.53,1.03-3.53,3.79v45.79h22.21c2.75,0,4.73-1.03,5.94-3.61l1.81.6Z"/>
        <path class="st20" d="M629.97,107.34c-1.2,0-3.36.69-3.36,3.61v40.11c0,2.24.34,4.22.86,6.11-7.57,5.94-15.23,10.07-24.01,10.07-9.47,0-16.87-3.18-24.53-9.9.69-2.24.69-4.39.69-6.11v-39.94c0-2.58-1.38-3.96-3.36-3.96v-1.63h17.64v1.63c-1.55.17-3.27.69-3.27,3.96v37.27c0,5.59,4.82,9.3,13,9.3,7.66,0,12.39-4.3,12.39-9.12v-37.7c0-3.1-1.98-3.7-3.36-3.7v-1.63h17.3v1.63Z"/>
        <path class="st19" d="M699.16,165.95h-17.73v-1.55c1.72,0,3.36-1.12,3.36-3.87v-34.34h-.26l-15.23,26.42h-4.13l-14.72-26.42h-.17v34.51c0,2.5,1.12,3.7,3.44,3.7v1.55h-17.73v-1.55c2.15,0,3.27-1.38,3.27-4.22v-48.97c0-2.58-1.12-3.87-3.27-3.87v-1.63h16.01c.26,1.38.69,2.93,1.55,4.56l14.03,26.25h.17l14.98-26.25c.95-1.63,1.46-3.27,1.55-4.56h14.89v1.63c-2.24,0-3.36,1.38-3.36,4.05v49.14c0,2.5,1.38,3.87,3.36,3.87v1.55Z"/>
        <path class="st16" d="M723.09,165.95h-17.64v-1.55c1.89,0,3.27-1.38,3.27-3.87v-49.4c0-2.75-1.55-3.79-3.27-3.79v-1.63h17.64v1.63c-1.98,0-3.36,1.29-3.36,3.79v49.4c0,2.58,1.46,3.87,3.36,3.87v1.55Z"/>
        <path class="st15" d="M783.5,107.34c-1.98,0-3.27,1.12-3.27,3.79v54.83h-8.78c-.17-1.55-.95-3.18-1.72-4.22l-25.99-35.55h-.43v34.34c0,2.58,1.29,3.87,3.27,3.87v1.55h-17.13v-1.55c1.98,0,3.27-1.38,3.27-3.87v-49.32c0-2.5-1.03-3.87-3.27-3.87v-1.63h14.12c.17.86.95,2.93,2.15,4.56l23.41,31.93h.52v-31.16c0-2.5-1.12-3.7-3.27-3.7v-1.63h17.13v1.63Z"/>
        <path class="st21" d="M807.52,165.95h-17.64v-1.55c1.89,0,3.27-1.38,3.27-3.87v-49.4c0-2.75-1.55-3.79-3.27-3.79v-1.63h17.64v1.63c-1.98,0-3.36,1.29-3.36,3.79v49.4c0,2.58,1.46,3.87,3.36,3.87v1.55Z"/>
        <path class="st17" d="M867.24,107.34c-1.21,0-3.36.69-3.36,3.61v40.11c0,2.24.34,4.22.86,6.11-7.57,5.94-15.23,10.07-24.01,10.07-9.47,0-16.87-3.18-24.53-9.9.69-2.24.69-4.39.69-6.11v-39.94c0-2.58-1.38-3.96-3.36-3.96v-1.63h17.64v1.63c-1.55.17-3.27.69-3.27,3.96v37.27c0,5.59,4.82,9.3,13,9.3,7.66,0,12.4-4.3,12.4-9.12v-37.7c0-3.1-1.98-3.7-3.36-3.7v-1.63h17.3v1.63Z"/>
        <path class="st18" d="M936.44,165.95h-17.73v-1.55c1.72,0,3.36-1.12,3.36-3.87v-34.34h-.26l-15.23,26.42h-4.13l-14.72-26.42h-.17v34.51c0,2.5,1.12,3.7,3.44,3.7v1.55h-17.73v-1.55c2.15,0,3.27-1.38,3.27-4.22v-48.97c0-2.58-1.12-3.87-3.27-3.87v-1.63h16.01c.26,1.38.69,2.93,1.55,4.56l14.03,26.25h.17l14.98-26.25c.95-1.63,1.46-3.27,1.55-4.56h14.89v1.63c-2.24,0-3.36,1.38-3.36,4.05v49.14c0,2.5,1.38,3.87,3.36,3.87v1.55Z"/>
      </g>
      <g>
        <path class="st22" d="M248.47,228.23c-24.24,10.99-50.95,14.5-75.48,8.98-21.64-4.88-40.57-16.47-55.9-33.85-.93-1.06-1.84-2.15-2.73-3.24h25.82c7.35,5.84,15.5,10.98,24.31,15.27,10.27,5.02,21.23,8.8,32.61,11.23,8.22,1.77,16.58,2.82,24.92,3.15,2.59.21,5.2.33,7.84.33,6.36,0,12.59-.64,18.62-1.87Z"/>
        <path class="st13" d="M353.48,74.62c-.54-.7-1.08-1.4-1.64-2.09-3.27-4.12-6.73-7.97-10.38-11.55-7.69-7.52-16.19-13.84-25.32-18.77-8.71-4.72-18.07-8.22-27.79-10.42-21.44-4.82-44.63-3.29-67.09,4.44-10.8,3.72-21.23,8.8-31,15.11-6.26,4.05-12.2,8.56-17.74,13.5-3.02,2.38-5.88,4.96-8.57,7.69h-4.95c9.68-18.86,23.68-34.87,40.82-45.71,11.72-7.42,24.57-12.23,38.21-14.43,35.59-5.75,71.59,7.2,95.73,33.98,7.17,7.94,13.43,16.72,18.61,26.16.37.69.75,1.39,1.12,2.09Z"/>
        <path class="st10" d="M343.51,72.53h-26.97c-6.47-4.83-13.53-9.1-21.06-12.77-10.28-5-21.24-8.78-32.61-11.23-7.76-1.67-15.62-2.69-23.5-3.08-3.14-.31-6.32-.48-9.53-.48-6.1,0-12.06.58-17.84,1.71,24.1-10.8,50.6-14.22,74.95-8.74,21.94,4.93,41.11,16.79,56.54,34.59Z"/>
        <path class="st12" d="M302.21,200.12c-9.72,19.94-24.17,36.89-42.08,48.2-10.86,6.88-22.69,11.51-35.22,13.91-36.82,7.05-74.5-6.36-99.04-34.68-6.08-7.01-11.46-14.65-16.03-22.8,2.76,3.31,5.65,6.46,8.67,9.41,7.68,7.52,16.19,13.85,25.3,18.78,8.71,4.71,18.07,8.21,27.8,10.41,8.18,1.84,16.6,2.75,25.15,2.75,13.86,0,28.05-2.4,41.93-7.19,10.8-3.72,21.23-8.81,31-15.12,5.68-3.66,11.09-7.72,16.18-12.12,4.71-3.45,9.1-7.33,13.09-11.56h3.25Z"/>
        <path class="st9" d="M328.19,200.12c-5.26,18.51-15.63,34.9-30.45,48.57-18.39,16.94-42.51,26.31-67.51,26.38h-.38c-12.76,0-25.11-1.74-36.83-4.99,3.72.33,7.41.49,11.07.49h1.22c10.74-.11,21.23-1.67,31.17-4.62,9.5-2.82,18.58-6.96,27.02-12.3,18.57-11.75,33.89-29.23,44.3-50.57.48-.98.94-1.96,1.39-2.95h19Z"/>
        <path class="st7" d="M305.37,72.53h-8.78c-4.35-4.33-9.15-8.22-14.28-11.64,8.13,3.15,15.88,7.06,23.06,11.64Z"/>
        <path class="st8" d="M349.39,200.12c-6.89,17.84-18.64,33.81-34.38,45.91-5.63,4.33-11.61,8.25-17.87,11.7,3.34-2.76,6.47-5.66,9.44-8.68,7.52-7.68,13.84-16.19,18.77-25.3,4.04-7.45,7.19-15.39,9.38-23.62h14.66Z"/>
        <path class="st11" d="M162.86,17.38c-3.34,2.78-6.5,5.68-9.47,8.71-7.52,7.68-13.85,16.19-18.78,25.32-3.63,6.71-6.53,13.78-8.68,21.12h-14.28c6.32-15.1,16.19-28.78,29.08-39.76,6.84-5.82,14.24-10.98,22.13-15.39Z"/>
        <path class="st14" d="M178.6,214.63c-9.93-3.77-19.27-8.64-27.79-14.51h10.85c5.03,5.49,10.72,10.37,16.94,14.51Z"/>
        <path class="st6" d="M267.24,5.11c-4.23-.38-8.43-.56-12.59-.51-10.76.1-21.24,1.66-31.18,4.62-9.5,2.82-18.58,6.95-27.01,12.28-18.57,11.75-33.89,29.23-44.3,50.57-.07.15-.15.3-.22.45h-19.44c5.72-18.27,16.45-34.39,31.59-47.76C182.14,8.82,205.41.06,229.47,0h.37c12.91,0,25.46,1.77,37.39,5.11Z"/>
      </g>
    </g>
  </g>
</svg>