<?xml version="1.0" encoding="UTF-8"?>
<svg id="Layer_1" xmlns="http://www.w3.org/2000/svg" version="1.1" viewBox="0 0 1080 639.35">
  <!-- Generator: Adobe Illustrator 30.2.1, SVG Export Plug-In . SVG Version: 2.1.1 Build 1)  -->
  <defs>
    <style>
      .st0 {
        fill: #ff7900;
      }
    </style>
  </defs>
  <g>
    <path d="M255.94,229.28v129.13c0,13.57.99,19.2,3.31,23.84-26.49,30.13-64.23,56.62-120.52,56.62s-95.69-24.83-124.16-56.62c2.65-4.97,3.64-10.6,3.64-23.84v-128.8c0-14.24-8.28-19.87-18.21-19.87v-8.61h105.62v8.61c-12.91,0-18.21,5.96-18.21,19.87v118.2c0,22.85,25.16,37.41,51.32,37.41s56.29-12.25,56.29-38.08v-117.87c0-13.91-5.96-19.87-18.21-19.87v-8.28h97.34v8.28c-12.25,0-18.21,5.96-18.21,19.87Z"/>
    <path d="M415.51,437.86c-51.32,0-101.98-2.98-127.8-4.97v-8.61c12.25,0,18.21-5.3,18.21-19.2v-173.16c0-16.56-5.63-22.19-18.21-22.19v-8.61c25.49-1.99,73.5-5.3,124.82-5.3,92.04,0,149.65,48.67,149.65,120.85s-42.05,121.18-146.68,121.18ZM411.54,248.81c-17.22,0-25.49.33-36.42,1.32v134.09c9.93.99,23.84,1.32,39.73,1.32,44.7,0,76.15-22.85,76.15-69.2s-34.43-67.54-79.46-67.54Z"/>
    <path d="M732.03,432.9v-8.61c8.94,0,13.91-2.98,13.91-8.61,0-2.98-.66-5.63-2.32-9.27l-1.66-3.31c-14.9,3.64-31.79,6.63-47.68,6.63-16.89,0-35.76-3.31-49.66-6.63l-1.32,4.31c-.99,3.97-1.66,7.28-1.66,9.6,0,5.63,4.3,7.28,12.25,7.28v8.61h-100.65v-8.61c10.93,0,14.24-3.97,19.53-16.88l72.51-176.14c2.65-5.96,3.97-10.26,3.97-12.58,0-5.96-2.98-8.94-8.94-8.94v-8.61h109.26v8.61c-6.29,0-9.6,3.31-9.6,8.94,0,3.64,2.32,9.6,3.64,12.91l71.85,176.14c5.63,13.24,9.6,16.55,18.87,16.55v8.61h-102.31ZM689.32,267.02h-.66l-30.46,88.4c9.6,3.31,18.21,5.3,32.12,5.3,12.58,0,23.51-1.99,32.45-5.63l-33.44-88.07Z"/>
    <path d="M1055.83,225.63l-92.37,139.39v39.73c0,13.91,4.3,19.53,18.21,19.53v8.61h-105.62v-8.61c13.91,0,18.54-5.3,18.54-19.53v-40.39l-92.71-137.74c-8.61-12.58-13.57-16.89-23.18-16.89v-8.61h117.87v8.61c-8.94,0-13.58,3.31-13.58,9.94,0,2.65,1.33,6.29,3.31,9.6l46.68,81.78h.66l45.03-80.79c2.98-5.3,4.3-7.62,4.3-11.92,0-5.63-3.97-8.61-13.57-8.61v-8.61h110.59v8.61c-9.6,0-16.56,4.31-24.17,15.89Z"/>
  </g>
  <g>
    <path class="st0" d="M577.54,530.51c-56.35,25.54-118.42,33.71-175.44,20.88-50.3-11.33-94.31-38.29-129.94-78.69-2.17-2.47-4.28-4.99-6.35-7.54h60.01c17.08,13.59,36.04,25.52,56.51,35.5,23.86,11.66,49.35,20.45,75.79,26.11,19.12,4.12,38.53,6.56,57.92,7.32,6.02.49,12.09.76,18.22.76,14.78,0,29.26-1.49,43.28-4.34Z"/>
    <path class="st0" d="M821.64,173.44c-1.25-1.63-2.52-3.25-3.82-4.85-7.59-9.57-15.65-18.52-24.13-26.85-17.87-17.49-37.64-32.16-58.84-43.63-20.26-10.98-42-19.12-64.59-24.21-49.84-11.2-103.75-7.65-155.95,10.33-25.11,8.65-49.35,20.45-72.05,35.12-14.56,9.41-28.36,19.9-41.24,31.37-7.02,5.53-13.67,11.52-19.93,17.87h-11.5c22.51-43.85,55.05-81.05,94.88-106.24,27.25-17.25,57.11-28.42,88.81-33.54,82.73-13.37,166.41,16.73,222.52,78.99,16.68,18.47,31.21,38.86,43.25,60.8.87,1.6,1.74,3.23,2.6,4.85Z"/>
    <path class="st0" d="M798.45,168.58h-62.69c-15.05-11.23-31.45-21.15-48.94-29.69-23.89-11.63-49.38-20.42-75.79-26.11-18.03-3.88-36.31-6.26-54.61-7.16-7.29-.73-14.7-1.11-22.15-1.11-14.18,0-28.04,1.36-41.46,3.99,56.02-25.11,117.6-33.05,174.22-20.31,51.01,11.47,95.56,39.02,131.43,80.4Z"/>
    <path class="st0" d="M702.46,465.16c-22.59,46.34-56.19,85.74-97.81,112.05-25.25,16-52.74,26.76-81.86,32.32-85.58,16.38-173.17-14.78-230.22-80.62-14.13-16.3-26.63-34.06-37.26-52.99,6.43,7.7,13.12,15.02,20.15,21.88,17.84,17.49,37.64,32.19,58.82,43.66,20.26,10.95,42,19.09,64.62,24.19,19.01,4.28,38.59,6.4,58.46,6.4,32.21,0,65.19-5.59,97.46-16.7,25.11-8.65,49.35-20.47,72.05-35.14,13.21-8.51,25.79-17.95,37.61-28.17,10.95-8.03,21.15-17.03,30.42-26.87h7.57Z"/>
    <path class="st0" d="M762.85,465.16c-12.23,43.03-36.34,81.13-70.77,112.89-42.74,39.37-98.81,61.15-156.92,61.31h-.89c-29.67,0-58.35-4.04-85.61-11.61,8.65.76,17.22,1.14,25.73,1.14h2.85c24.97-.24,49.35-3.88,72.46-10.74,22.07-6.56,43.2-16.19,62.8-28.58,43.17-27.31,78.77-67.95,102.96-117.55,1.11-2.28,2.2-4.56,3.23-6.86h44.17Z"/>
    <path class="st0" d="M709.81,168.58h-20.42c-10.11-10.06-21.26-19.12-33.19-27.06,18.9,7.32,36.91,16.41,53.61,27.06Z"/>
    <path class="st0" d="M812.12,465.16c-16.03,41.46-43.33,78.58-79.91,106.7-13.1,10.06-26.98,19.17-41.54,27.2,7.76-6.43,15.05-13.15,21.94-20.17,17.49-17.84,32.16-37.64,43.63-58.82,9.38-17.33,16.7-35.77,21.8-54.91h34.09Z"/>
    <path class="st0" d="M378.55,40.4c-7.75,6.45-15.1,13.21-22.02,20.26-17.49,17.84-32.19,37.64-43.66,58.84-8.43,15.59-15.18,32.02-20.17,49.08h-33.19c14.7-35.09,37.64-66.9,67.6-92.41,15.89-13.53,33.11-25.52,51.44-35.77Z"/>
    <path class="st0" d="M415.14,498.89c-23.08-8.76-44.8-20.09-64.59-33.73h25.22c11.69,12.77,24.92,24.11,39.37,33.73Z"/>
    <path class="st0" d="M621.17,11.88c-9.84-.89-19.61-1.3-29.26-1.19-25,.24-49.38,3.85-72.48,10.74-22.07,6.56-43.2,16.16-62.77,28.55-43.17,27.31-78.77,67.95-102.96,117.55-.16.35-.35.71-.52,1.06h-45.18c13.29-42.46,38.23-79.94,73.43-111.01C423.38,20.5,477.45.14,533.39,0h.87c30.02,0,59.17,4.12,86.91,11.88Z"/>
  </g>
  <path class="st0" d="M821.64,173.44c-1.25-1.63-2.52-3.25-3.82-4.85h1.22c.87,1.6,1.74,3.23,2.6,4.85Z"/>
</svg>